<?xml version="1.0" standalone="no"?>
<!DOCTYPE svg PUBLIC "-//W3C//DTD SVG 20010904//EN"
 "http://www.w3.org/TR/2001/REC-SVG-20010904/DTD/svg10.dtd">
<svg version="1.0" xmlns="http://www.w3.org/2000/svg"
 width="512.000000pt" height="512.000000pt" viewBox="0 0 512.000000 512.000000"
 preserveAspectRatio="xMidYMid meet">
<metadata>
Created by potrace 1.11, written by Peter Selinger 2001-2013
</metadata>
<g transform="translate(0.000000,512.000000) scale(0.100000,-0.100000)"
fill="#000000" stroke="none">
<path d="M0 2560 l0 -2560 2560 0 2560 0 0 2560 0 2560 -2560 0 -2560 0 0
-2560z m3053 821 c31 -13 57 -27 57 -32 0 -5 -18 -45 -40 -89 l-40 -79 -47 21
c-34 15 -69 22 -119 22 -61 1 -76 -3 -112 -27 -53 -35 -98 -96 -117 -160 -20
-66 -19 -179 0 -217 18 -35 76 -56 128 -46 33 6 36 10 50 66 l15 60 -64 0 -64
0 7 28 c3 15 12 52 18 82 l11 55 167 3 c154 2 167 1 167 -15 -1 -10 -20 -108
-43 -218 l-43 -200 -37 -12 c-105 -35 -280 -43 -366 -17 -38 11 -67 29 -100
62 -60 60 -85 134 -84 248 2 239 129 421 334 479 79 22 246 15 322 -14z
m-2347 2 c-21 -71 -106 -501 -106 -535 0 -71 45 -97 110 -63 16 9 37 29 46 46
9 17 41 151 73 298 l57 266 107 3 c81 2 107 0 107 -10 0 -31 -114 -538 -132
-585 -31 -84 -75 -133 -152 -173 -66 -34 -73 -35 -176 -35 -101 0 -109 2 -155
30 -66 41 -105 113 -105 196 0 34 24 169 55 315 30 141 55 258 55 260 0 2 50
4 111 4 100 0 110 -2 105 -17z m1053 -65 c-10 -46 -19 -86 -19 -90 0 -5 -40
-8 -88 -8 l-88 0 -64 -310 -65 -310 -107 0 c-80 0 -108 3 -107 13 0 6 28 145
62 307 l63 295 -87 3 -87 3 19 82 c10 45 19 85 19 90 0 4 128 7 284 7 l284 0
-19 -82z m606 45 c-3 -21 -11 -59 -17 -85 l-10 -47 -131 -3 -131 -3 -8 -40
c-4 -22 -10 -50 -13 -62 -5 -23 -5 -23 115 -23 66 0 120 -3 120 -7 0 -4 -8
-43 -17 -85 l-16 -78 -122 0 -122 0 -12 -57 c-7 -32 -15 -66 -17 -75 -5 -17 6
-18 126 -18 132 0 132 0 127 -22 -3 -13 -11 -53 -18 -90 l-12 -68 -239 0
c-131 0 -238 3 -238 8 0 4 37 184 82 400 l83 392 239 0 238 0 -7 -37z m1069
20 c2 -10 12 -67 22 -128 9 -60 20 -116 24 -123 4 -9 35 37 86 127 l79 141
124 0 c97 0 121 -3 114 -12 -6 -7 -82 -119 -170 -248 -157 -231 -160 -237
-177 -320 -10 -47 -24 -115 -33 -152 l-15 -68 -109 0 c-100 0 -110 2 -105 18
3 9 19 79 35 155 l29 138 -64 240 c-35 132 -64 242 -64 245 0 2 49 4 109 4 96
0 110 -2 115 -17z m828 -265 l3 -282 129 282 129 282 144 0 c78 0 143 -3 144
-7 0 -5 -37 -185 -83 -400 l-83 -393 -97 0 c-54 0 -98 2 -98 5 0 13 93 427
106 474 8 29 13 55 11 57 -2 2 -59 -118 -127 -266 l-123 -270 -104 0 -103 0
-1 278 -1 277 -23 -133 c-22 -124 -70 -365 -81 -404 -5 -16 -18 -18 -100 -18
-52 0 -94 3 -94 8 0 4 37 184 82 400 l83 392 142 0 143 0 2 -282z m-1387 -704
c155 -40 237 -145 266 -340 l11 -74 817 -2 816 -3 -140 -93 c-235 -156 -488
-272 -697 -318 -101 -23 -284 -23 -368 0 -169 46 -321 170 -399 327 l-42 84
-647 5 -646 5 139 91 c299 195 489 284 680 319 95 18 140 18 210 -1z m-1035
-419 c0 -9 -257 -174 -356 -229 -119 -66 -255 -124 -379 -162 -77 -23 -108
-27 -215 -28 -107 0 -133 3 -182 22 -121 49 -210 148 -253 284 -14 44 -25 88
-25 99 0 19 13 19 705 19 388 0 705 -2 705 -5z"/>
</g>
</svg>
