<svg xmlns="http://www.w3.org/2000/svg" width="44" height="44" viewBox="0 0 44 44">
  <path fill="#BFF683" d="M43.9589189,21.3944595 L24.4325676,1.86689189 L24.4325676,1.86689189 C24.0365279,1.45044614 23.4869924,1.21469515 22.9122973,1.21469515 C22.3376022,1.21469515 21.7880667,1.45044614 21.392027,1.86689189 L1.86689189,21.3944595 C1.45044614,21.7904992 1.21469515,22.3400346 1.21469515,22.9147297 C1.21469515,23.4894249 1.45044614,24.0389603 1.86689189,24.435 L21.3944595,43.9601351 L21.3944595,43.9601351 C21.7904992,44.3765809 22.3400346,44.6123319 22.9147297,44.6123319 C23.4894249,44.6123319 24.0389603,44.3765809 24.435,43.9601351 L43.9589189,24.4325676 C44.3745878,24.0366005 44.6098379,23.4875958 44.6098379,22.9135135 C44.6098379,22.3394312 44.3745878,21.7904265 43.9589189,21.3944595 Z M27.252973,28.3390541 L27.252973,22.9147297 L18.5740541,22.9147297 L18.5740541,29.4239189 L14.2297297,29.4239189 L14.2297297,20.7437838 C14.1941808,20.1581594 14.4113364,19.5853832 14.8261977,19.170522 C15.2410589,18.7556608 15.8138351,18.5385052 16.3994595,18.5740541 L27.2481081,18.5740541 L27.2481081,13.1497297 L34.8421622,20.7437838 L27.252973,28.3390541 Z" transform="translate(-1 -1)"/>
</svg>
