<svg xmlns="http://www.w3.org/2000/svg" width="36" height="36" viewBox="0 0 36 36">
  <path fill="#BFF683" d="M36.144,17.591 L20.089,1.535 L20.089,1.535 C19.7633674,1.19258905 19.3115271,0.998749343 18.839,0.998749343 C18.3664729,0.998749343 17.9146326,1.19258905 17.589,1.535 L1.535,17.591 C1.19258905,17.9166326 0.998749343,18.3684729 0.998749343,18.841 C0.998749343,19.3135271 1.19258905,19.7653674 1.535,20.091 L17.591,36.145 L17.591,36.145 C17.9166326,36.487411 18.3684729,36.6812507 18.841,36.6812507 C19.3135271,36.6812507 19.7653674,36.487411 20.091,36.145 L36.144,20.089 C36.4857722,19.7634271 36.6792,19.3120232 36.6792,18.84 C36.6792,18.3679768 36.4857722,17.9165729 36.144,17.591 Z M22.408,23.301 L22.408,18.841 L15.272,18.841 L15.272,24.193 L11.7,24.193 L11.7,17.056 C11.6707709,16.5744866 11.8493211,16.1035373 12.1904292,15.7624292 C12.5315373,15.4213211 13.0024866,15.2427709 13.484,15.272 L22.404,15.272 L22.404,10.812 L28.648,17.056 L22.408,23.301 Z" transform="translate(-1 -1)"/>
</svg>
