<svg xmlns="http://www.w3.org/2000/svg" width="23" height="23" viewBox="0 0 23 23">
  <path fill="#BFF683" d="M22.444,10.595 L12.19,0.342 L12.19,0.342 C11.9823266,0.123396102 11.6940226,-0.000376247732 11.3925,-0.000376247732 C11.0909774,-0.000376247732 10.8026734,0.123396102 10.595,0.342 L0.342,10.595 C0.123396102,10.8026734 -0.000376247732,11.0909774 -0.000376247732,11.3925 C-0.000376247732,11.6940226 0.123396102,11.9823266 0.342,12.19 L10.6,22.444 L10.6,22.444 C10.8076734,22.6626039 11.0959774,22.7863762 11.3975,22.7863762 C11.6990226,22.7863762 11.9873266,22.6626039 12.195,22.444 L22.444,12.19 C22.6626039,11.9823266 22.7863762,11.6940226 22.7863762,11.3925 C22.7863762,11.0909774 22.6626039,10.8026734 22.444,10.595 Z M13.671,14.241 L13.671,11.393 L9.114,11.393 L9.114,14.811 L6.836,14.811 L6.836,10.254 C6.81710799,9.94642636 6.93099366,9.64551337 7.14879531,9.42752049 C7.36659696,9.20952761 7.66740989,9.09537791 7.975,9.114 L13.675,9.114 L13.675,6.266 L17.662,10.253 L13.671,14.241 Z"/>
</svg>
