<svg xmlns="http://www.w3.org/2000/svg" width="44" height="44" viewBox="0 0 44 44">
  <path fill="#BFF683" d="M35.73875,28.259375 C33.3420428,28.2640015 31.08052,29.3702187 29.605625,31.259375 L16.27625,24.449375 C16.4654297,23.7880662 16.5663045,23.1046391 16.57625,22.416875 C16.5646066,21.6691415 16.4446083,20.9270466 16.22,20.21375 L29.495,13.42625 C31.8160128,16.4746125 36.0043679,17.3914041 39.3866347,15.591436 C42.7689016,13.7914679 44.3480339,9.80534619 43.1160703,6.17741568 C41.8841066,2.54948516 38.2042131,0.349210423 34.4252688,0.981028647 C30.6463245,1.61284687 27.8823108,4.89050664 27.8975,8.721875 C27.9071605,9.41164189 28.0086787,10.0970471 28.199375,10.76 L14.86625,17.579375 C12.7892168,14.9364027 9.25918616,13.9104118 6.08906702,15.0283181 C2.91894789,16.1462243 0.81333912,19.1595589 0.853612926,22.5207711 C0.893886732,25.8819834 3.07109175,28.8440016 6.26708627,29.8856295 C9.46308079,30.9272574 12.9675148,29.8169802 14.980625,27.125 L28.25,33.9125 C28.024477,34.6275661 27.9038466,35.3715588 27.891875,36.12125 C27.8980873,40.4560486 31.4164395,43.9654495 35.7512398,43.9606192 C40.0860402,43.955789 43.5965627,40.4385558 43.5931145,36.1037542 C43.5896663,31.7689525 40.0735525,28.2573089 35.73875,28.259375 L35.73875,28.259375 Z"/>
</svg>
