<svg xmlns="http://www.w3.org/2000/svg" width="23" height="23" viewBox="0 0 23 23">
  <path fill="#BFF683" d="M19.594,15.605 C18.3157562,15.6074675 17.1096107,16.19745 16.323,17.205 L9.214,13.573 C9.31489582,13.220302 9.36869574,12.8558075 9.374,12.489 C9.3677902,12.0902088 9.3037911,11.6944249 9.184,11.314 L16.264,7.694 C17.5018735,9.31979333 19.7356629,9.80874885 21.5395385,8.84876587 C23.3434142,7.88878288 24.1856181,5.7628513 23.5285708,3.82795503 C22.8715235,1.89305875 20.9089137,0.719578892 18.8934767,1.05654861 C16.8780398,1.39351833 15.4038991,3.14160354 15.412,5.185 C15.4171523,5.55287567 15.4712953,5.9184251 15.573,6.272 L8.462,9.909 C7.35424896,8.49941475 5.47156595,7.95221965 3.78083575,8.54843631 C2.09010554,9.14465297 0.967114197,10.7517647 0.98859356,12.5444113 C1.01007292,14.3370578 2.17124893,15.9168008 3.87577935,16.4723357 C5.58030976,17.0278706 7.44934124,16.4357227 8.523,15 L15.6,18.62 C15.479721,19.0013686 15.4153848,19.3981647 15.409,19.798 C15.4123132,22.1098926 17.2887677,23.9815731 19.6006613,23.9789969 C21.9125548,23.9764208 23.7848334,22.1005631 23.7829944,19.7886689 C23.7811553,17.4767747 21.9058947,15.6038981 19.594,15.605 L19.594,15.605 Z" transform="translate(-1 -1)"/>
</svg>
