<svg xmlns="http://www.w3.org/2000/svg" width="30" height="30" viewBox="0 0 30 30">
  <g fill="#BFF683" transform="translate(-1)">
    <path d="M12.322,19.314 L11.862,22.048 C11.8011596,22.4207758 11.9555454,22.7960245 12.2611029,23.018056 C12.5666604,23.2400874 12.971247,23.2710123 13.307,23.098 L15.765,21.815 L18.223,23.098 C18.5588281,23.2715736 18.9638303,23.2409342 19.2697231,23.0188129 C19.5756159,22.7966916 19.7301057,22.4210608 19.669,22.048 L19.209,19.314 L21.188,17.373 C21.457046,17.1072334 21.553152,16.7124277 21.4363585,16.3527377 C21.3195651,15.9930477 21.0098544,15.7300131 20.636,15.673 L17.894,15.266 L16.659,12.783 C16.4892421,12.445233 16.1435269,12.2320632 15.7655,12.2320632 C15.3874731,12.2320632 15.0417579,12.445233 14.872,12.783 L13.638,15.266 L10.896,15.672 C10.5221456,15.7290131 10.2124349,15.9920477 10.0956415,16.3517377 C9.978848,16.7114277 10.074954,17.1062334 10.344,17.372 L12.322,19.314 Z"/>
    <path d="M27.551,3.189 L24.411,3.189 L24.411,1.447 C24.4110001,1.06305842 24.2584115,0.694856676 23.98683,0.423462772 C23.7152486,0.152068868 23.3469415,-0.000265336271 22.963,6.04738484e-16 L22.733,6.04738484e-16 C21.933844,7.16453554e-16 21.286,0.647843967 21.286,1.447 L21.286,3.189 L10.207,3.189 L10.207,1.447 C10.207,0.647843967 9.55915603,4.93023415e-16 8.76,4.4408921e-16 L8.53,4.4408921e-16 C7.73084397,3.95155005e-16 7.083,0.647843967 7.083,1.447 L7.083,3.189 L3.983,3.189 C2.33686731,3.18844714 1.00165598,4.52186805 1,6.168 L1,27.021 C1.00220348,28.6653427 2.33465731,29.9977965 3.979,30 L27.552,30 C29.1963427,29.9977965 30.5287965,28.6653427 30.531,27.021 L30.531,6.168 C30.5287954,4.52326744 29.1957332,3.19065263 27.551,3.189 Z M27.163,26.632 L4.368,26.632 L4.368,10.4 L27.168,10.4 L27.163,26.632 Z"/>
  </g>
</svg>
