<svg xmlns="http://www.w3.org/2000/svg" width="30" height="30" viewBox="0 0 30 30">
  <path fill="#BFF683" d="M20.5,15.229 C17.0498531,15.2296671 13.8260658,16.9465212 11.9,19.809 L11.9,13.743 C11.9005516,12.9225334 12.5655334,12.2575516 13.386,12.257 C15.1830966,12.2536948 16.6387987,10.7970983 16.641,9 L16.641,4.257 C16.638796,2.45912227 15.1818777,1.00220396 13.384,1 L8.641,1 C7.77203453,1.01136954 6.93519728,1.33023217 6.279,1.9 C5.61090003,2.45341618 5.15999298,3.22523586 5.006,4.079 L1.043,27.858 C0.890458632,28.7006004 1.11690526,29.5676092 1.662,30.228 C2.22391597,30.8740603 3.04184419,31.23986 3.898,31.228 L27.613,31.228 C29.4108777,31.225796 30.867796,29.7688777 30.87,27.971 L30.87,25.6 C30.8633883,19.8753861 26.2246133,15.2361637 20.5,15.229 Z M29.1,27.972 C29.0994484,28.7924666 28.4344666,29.4574484 27.614,29.458 L3.9,29.458 C3.56405145,29.4711976 3.23967273,29.3341155 3.015,29.084 C2.80550204,28.8213048 2.72377494,28.4790038 2.792,28.15 L6.754,4.37 C6.94115654,3.46633984 7.71988071,2.80640411 8.642,2.77 L13.385,2.77 C14.2054663,2.77110352 14.8700007,3.43653299 14.87,4.257 L14.87,5.743 L11.9,5.743 L11.9,5.68 C11.9108713,5.35654475 11.744514,5.05289674 11.4660651,4.88794914 C11.1876162,4.72300155 10.8413838,4.72300155 10.5629349,4.88794914 C10.284486,5.05289674 10.1181287,5.35654475 10.129,5.68 L10.129,6.629 C10.129,7.11832429 10.5256757,7.515 11.015,7.515 L14.87,7.515 L14.87,9 C14.8694484,9.82046656 14.2044666,10.4854484 13.384,10.486 C11.5861223,10.488204 10.129204,11.9451223 10.127,13.743 L10.127,25.6 C10.1161287,25.9234553 10.282486,26.2271033 10.5609349,26.3920509 C10.8393838,26.5569985 11.1856162,26.5569985 11.4640651,26.3920509 C11.742514,26.2271033 11.9088713,25.9234553 11.898,25.6 C11.8980001,20.8503512 15.7483512,17.0000001 20.498,17.0000001 C25.2476488,17.0000001 29.0979999,20.8503512 29.098,25.6 L29.1,27.972 Z" transform="translate(-1 -1)"/>
</svg>
