<svg xmlns="http://www.w3.org/2000/svg" width="37" height="29" viewBox="0 0 37 29">
  <g fill="#BFF683">
    <path d="M35.941171,14.0294767 L31.021171,9.94947672 L31.021171,0.78627672 C31.0290412,0.593015457 30.9557147,0.405272183 30.8189451,0.268502566 C30.6821755,0.131732949 30.4944322,0.0584064959 30.301171,0.0662767204 L25.997971,0.0662767204 C25.8046067,0.0580370905 25.6166453,0.131244565 25.4797921,0.268097833 C25.3429388,0.404951101 25.2697313,0.592912446 25.277971,0.78627672 L25.277971,5.16747672 L19.802371,0.58347672 C18.7982249,-0.19449224 17.394917,-0.19449224 16.390771,0.58347672 L0.250770951,14.0294767 C0.102841053,14.1462056 0.0126883247,14.3212594 0.0035709506,14.5094767 C-0.0153029621,14.6992821 0.0411527406,14.8889043 0.160770951,15.0374767 L1.55277095,16.6982767 C1.67533081,16.8344482 1.84265755,16.9221564 2.02437095,16.9454767 C2.21668256,16.9564032 2.40690712,16.9009034 2.56317095,16.7882767 L18.095971,3.83907672 L33.629971,16.7906767 C33.7624096,16.8993177 33.9304714,16.9549107 34.101571,16.9466767 L34.168771,16.9466767 C34.3504519,16.9232534 34.5177449,16.8355629 34.640371,16.6994767 L36.032371,15.0386767 C36.1516774,14.8899849 36.2077111,14.7003323 36.188371,14.5106767 C36.1792827,14.3221168 36.0891589,14.1466817 35.941171,14.0294767 Z"/>
    <path d="M18.095971,5.81427672 L5.18877095,16.4546767 C5.18769106,16.4774097 5.18406848,16.4999502 5.17797095,16.5218767 C5.17189296,16.5438075 5.16827074,16.5663458 5.16717095,16.5890767 L5.16717095,27.3674767 C5.17688043,28.1587101 5.8159376,28.7977672 6.60717095,28.8074767 L15.226771,28.8074767 L15.226771,20.1878767 L20.973571,20.1878767 L20.973571,28.8074767 L29.588371,28.8074767 C30.3793381,28.797136 31.0180302,28.1584439 31.028371,27.3674767 L31.028371,16.5926767 C31.0306527,16.5467507 31.0228712,16.5008808 31.005571,16.4582767 L18.095971,5.81427672 Z"/>
  </g>
</svg>
