<svg xmlns="http://www.w3.org/2000/svg" width="31" height="25" viewBox="0 0 31 25">
  <g fill="#FFF" transform="translate(-1)">
    <path d="M16.079,4.845 L5.323,13.712 C5.32210009,13.7309441 5.31908128,13.7497279 5.314,13.768 C5.30893501,13.7862757 5.30591649,13.8050576 5.305,13.824 L5.305,22.806 C5.31309123,23.4653611 5.84563888,23.9979088 6.505,24.006 L13.688,24.006 L13.688,16.823 L18.477,16.823 L18.477,24.006 L25.656,24.006 C26.3151393,23.9973827 26.8473827,23.4651393 26.856,22.806 L26.856,13.827 C26.8579014,13.7887283 26.8514169,13.7505034 26.837,13.715 L16.079,4.845 Z"/>
    <path d="M30.95,11.691 L26.85,8.291 L26.85,0.655 C26.8565585,0.493948947 26.7954531,0.337496219 26.6814785,0.223521538 C26.5675038,0.109546857 26.4110511,0.0484414796 26.25,0.055 L22.664,0.055 C22.5028631,0.0481336417 22.3462287,0.109139871 22.2321843,0.223184261 C22.1181399,0.337228651 22.0571336,0.493863105 22.064,0.655 L22.064,4.306 L17.501,0.486 C16.6642116,-0.162307467 15.4947884,-0.162307467 14.658,0.486 L1.208,11.691 C1.08472509,11.788274 1.00959781,11.9341522 1.002,12.091 C0.986271739,12.2491711 1.03331816,12.4071896 1.133,12.531 L2.293,13.915 C2.39513321,14.0284763 2.53457216,14.1015664 2.686,14.121 C2.84625968,14.1301054 3.00478015,14.0838555 3.135,13.99 L16.079,3.199 L29.024,13.992 C29.1343656,14.0825342 29.274417,14.1288616 29.417,14.122 L29.473,14.122 C29.6244008,14.1024805 29.7638116,14.0294052 29.866,13.916 L31.026,12.532 C31.125422,12.4080902 31.1721168,12.2500463 31.156,12.092 C31.1484264,11.9348668 31.0733233,11.7886708 30.95,11.691 Z"/>
  </g>
</svg>
